<svg xmlns="http://www.w3.org/2000/svg" viewBox="0 0 476.81 211.91"><defs><style>.cls-1,.cls-2{fill:#dfdcd6;}.cls-2{opacity:0.8;}</style></defs><g id="Layer_2" data-name="Layer 2"><g id="Layer_1-2" data-name="Layer 1"><path class="cls-1" d="M104.3,211.91V78.62l-1-.09c-4,21.08-6.84,42.39-10.75,63.8-2.32,0-4.34,0-6.36,0s-3-1-3.27-3c-.62-4.28-1.36-8.55-2.08-12.82q-3.72-22.07-7.48-44.12a6.45,6.45,0,0,0-1.29-3.07v132c-2.1-.5-3.7-.75-5.21-1.27-8.08-2.74-8-2.76-8-11.16q0-92.67-.07-185.33c0-.48,0-1,0-1.45C59,3.49,57.51,5.42,65.84,2c1.85-.76,3.82-1.23,6.27-2,5.35,30.41,10.16,60.46,15.48,90.41l1,0L103.81.66c3.32-.35,5.75,1.13,8.3,2.05,6.5,2.37,5.21,1.92,5.21,7.3q.08,96.64.09,193.29c0,2.55-.7,4-3.16,4.87C111.19,209.19,108.2,210.43,104.3,211.91Z"/><path class="cls-1" d="M16.22,166.07a115.75,115.75,0,0,1-16-66.33c.93-17.8,8.63-43.45,15.06-49.81,2.07,8.24,4.06,16.19,6.06,24.14l.64,0a22.07,22.07,0,0,0,.8-2.55C25.53,57.08,28.33,42.67,31,28.25a11,11,0,0,1,3.67-6.79c3.09-2.63,5.89-5.64,10.08-7.83.11,1.62.28,2.87.28,4.12q0,44.05,0,88.12,0,42.6,0,85.22c0,2.38,0,4.76,0,7.78a16.86,16.86,0,0,1-3-1.59c-3.11-2.83-6.2-5.7-9.18-8.67a5,5,0,0,1-1-2.55,16.25,16.25,0,0,1,0-2.88q0-45.13.07-90.28A8.65,8.65,0,0,0,31.4,90C29.61,94.44,29,99.14,28,103.72s-2.12,9.11-3.25,14l-4.39.22c-2-8.15-4-16.23-6.06-24.31l-.74.06c-.18,2.1-.42,4.2-.52,6.31-.82,17.33,1.62,34.05,9.14,49.89,3.29,6.92,3.1,7.09-2.16,12.5C18.91,163.44,17.81,164.5,16.22,166.07Z"/><path class="cls-1" d="M131.28,13.62A61,61,0,0,1,143.4,23.93c.76.81.9,2.43.9,3.68.07,14.81.06,29.61.07,44.42q0,11.93,0,23.84c0,1.06.1,2.12.18,3.58,6.13.34,12.08.23,18.24,0,.83-3.56-.15-6.83-.68-10.06a98,98,0,0,0-7.47-25.18,5.13,5.13,0,0,1,.42-5.69c2-2.81,3.82-5.77,5.77-8.74,6.73,7.42,14.23,32,15.22,51.76,1.37,27.28-9.45,55.55-16.48,64.14a12.23,12.23,0,0,1-2-1.26c-1.42-1.29-2.78-2.66-4.13-4-3-3.09-3.77-2.18-1.17-7.28a100.66,100.66,0,0,0,9.88-30.42c.48-3.07.69-6.18,1-9.19-2.88-.9-13.1-1.13-18.62-.46-.06,1.07-.18,2.22-.18,3.36,0,22.51-.06,45,0,67.54,0,2.6-.5,4.58-2.61,6.28-3.26,2.62-6.31,5.5-9.54,8.36-1.45-1.42-1.11-2.8-1.12-4q-.06-11.38,0-22.76.07-72.77.16-145.55Z"/><path class="cls-2" d="M189.8,130.78v-5.44c2.69-.74,282.14-1,287-.21v5.65Z"/><path class="cls-1" d="M250.8,110.56c-.09-1.37-.21-2.43-.21-3.49q0-14.07,0-28.13c0-1.26-.44-2.73,1.23-3.42s5.06-.13,6,1.14a20.42,20.42,0,0,1,1.46,2.48l9,16.61a16.75,16.75,0,0,0,.4-2.45c0-4.93-.06-9.86,0-14.79,0-2.82.52-3.21,3.47-3.22s3.57.43,3.59,3.17c0,9.74,0,19.48,0,29.22,0,1.17.14,2.48-1.28,3.08s-4.87.12-5.73-1A18.56,18.56,0,0,1,267.1,107c-2.67-5-5.3-10-8-15-.22-.41-.52-.76-1.19-1.7-.11,1.57-.24,2.56-.24,3.55,0,4.45,0,8.9,0,13.35,0,3.47-.47,3.91-4,3.77A26.35,26.35,0,0,1,250.8,110.56Z"/><path class="cls-1" d="M324.32,93.91c3.62,5,4.06,10.87,6.4,16.89-2.85,0-4.84.09-6.83,0-1.52,0-1.89-1.28-2.22-2.46-.75-2.66-1.35-5.37-2.22-8s-1.46-2.83-5.15-2.5v12.36a11.13,11.13,0,0,1-7.42.13c-.1-1.14-.28-2.31-.29-3.48q-.07-13.73-.07-27.45c0-3.92.16-4.06,4.08-4.09,2.65,0,5.3,0,7.95,0,4.25.1,8,1.28,9.48,5.74S329,89.69,325.18,93A10.23,10.23,0,0,0,324.32,93.91Zm-9.73-3.55c2.29.46,4.39.9,5.61-1.36a5.45,5.45,0,0,0-.12-5.79c-1.36-2-3.41-1.63-5.49-1.07Z"/><path class="cls-1" d="M438.84,93c-.79,3.74-1.2,7.36-2.35,10.73-1.69,4.94-5.58,7.45-10.76,7.67s-9.87-1.31-12.37-6.39c-3.93-8-3.68-16.15.08-24,2.26-4.74,6.83-6.24,11.84-6.07s9.22,2.43,11.05,7.31C437.62,85.63,438,89.39,438.84,93Zm-20.3.48a79.9,79.9,0,0,0,1.61,8.25,4.31,4.31,0,0,0,4.74,3.09,4.49,4.49,0,0,0,4.34-3.19,14.75,14.75,0,0,0,.57-1.7A32,32,0,0,0,429.73,86c-.64-2.94-2.32-4.47-4.77-4.63s-4.55,1.37-5.31,4.42A76.38,76.38,0,0,0,418.54,93.46Z"/><path class="cls-1" d="M217.49,92.5c.72-3.26,1.1-6.63,2.22-9.74,1.86-5.18,6.42-7.93,12.13-7.91s10.13,2.68,12,8a30,30,0,0,1,0,20.49c-1.9,5.34-6.12,8.06-12,8.08-5.58,0-9.71-2.4-12-7.57C218.3,100.29,217.89,96.48,217.49,92.5Zm20.57.53c-.56-2.86-.89-5.6-1.67-8.21a4.86,4.86,0,0,0-9.36.07,28.77,28.77,0,0,0,0,16.32,4.58,4.58,0,0,0,4.76,3.65,4.43,4.43,0,0,0,4.49-3.48C237,98.63,237.49,95.81,238.06,93Z"/><path class="cls-1" d="M460.85,93.79c2.75,4.22,5.49,12.32,5.67,16.64a10,10,0,0,1-1.92.51c-5,.43-5.36.16-6.72-4.73-.58-2.08-1.17-4.17-1.84-6.22s-2.06-2.86-4.57-2c-.07,2.86-.18,5.84-.23,8.81-.06,4-.39,4.34-4.33,4.17-.94,0-1.87-.24-3.07-.41a32,32,0,0,1-.31-3.22q-.06-13.89-.06-27.77c0-.72,0-1.44.06-2.16a1.91,1.91,0,0,1,2.08-2c4.08,0,8.19-.14,12.24.29a7.94,7.94,0,0,1,7.1,5.86c1,3.6.87,7.17-1.89,10.14C462.41,92.38,461.68,93,460.85,93.79Zm-9.28-12v8.57c2.17.26,4.13.67,5.31-1.43a5.71,5.71,0,0,0,.12-5.85C455.84,81.2,453.82,81.36,451.57,81.84Z"/><path class="cls-1" d="M358.48,110.43a5.49,5.49,0,0,1-1.14.37c-5.47.62-5.8.37-7.06-4.91-.17-.69-.47-1.34-.76-2.15H341.1c-.59,2.31-1.15,4.5-1.78,7h-7.14a33,33,0,0,1,.48-3.93q3.34-13.48,6.82-26.93c.41-1.58.31-3.89,2.17-4.22a27,27,0,0,1,7.45.13c.53.06,1.18,1.19,1.38,1.93q4.18,15.86,8.25,31.76C358.78,109.67,358.62,109.92,358.48,110.43ZM345.81,84.18l-.83.07c-.89,4.16-1.78,8.32-2.74,12.79h6.19C347.52,92.54,346.66,88.36,345.81,84.18Z"/><path class="cls-1" d="M212.69,82c-1.14-.14-2.2-.24-3.25-.4-3.82-.58-6.52.75-7.73,4.27a21.52,21.52,0,0,0,.11,14.51c1.12,3.11,3.47,4.47,6.78,4.2,1.42-.11,2.83-.47,4.21-.71,2.76,3.48,2,6.16-2.09,7.11-6.62,1.54-15.41-.38-17.4-11.11a33.73,33.73,0,0,1,.16-14c1.85-8,7.59-12,15.69-10.92C214.1,75.61,215.22,76.74,212.69,82Z"/><path class="cls-1" d="M381.38,103.86c2.52,4.31,1.67,6.37-2.86,7.26-8.31,1.64-14.85-2.63-16.65-10.9a32.87,32.87,0,0,1,.33-15.37,13.71,13.71,0,0,1,17.56-9.5c2.5.83,3.43,4.23,1.55,6a3.09,3.09,0,0,1-2,.47,19.65,19.65,0,0,1-2.12-.38,6,6,0,0,0-6.68,3.79,21.81,21.81,0,0,0,0,15.86,5.09,5.09,0,0,0,5.32,3.54C377.6,104.55,379.36,104.15,381.38,103.86Z"/><path class="cls-1" d="M302.17,75.74a20.48,20.48,0,0,1,.41,2.59c.05,2.87-.32,3.22-3.32,3.33-1.08,0-2.16.06-3.24.13-.22,0-.43.19-1.19.55v27.75a6.38,6.38,0,0,1-1.46.7c-5.78.66-6.2.28-6.19-5.47q0-9.55,0-19.09c0-1.3-.12-2.6-.2-4.28l-4.39-.18c-2.77-.13-3.15-.49-3.15-3.16a22.3,22.3,0,0,1,.31-2.69C282.49,75.2,297.37,75.08,302.17,75.74Z"/><path class="cls-1" d="M392.83,81.73c-2.1,0-3.65.08-5.18,0-2.17-.13-2.66-.82-2.61-3.37,0-2.31.47-3,2.6-3q9-.09,18,0c2.14,0,2.67.87,2.63,3.36,0,2.23-.5,2.78-2.7,2.89-1.54.08-3.08,0-5,0-.06,1.5-.15,2.65-.15,3.8,0,7.2,0,14.41,0,21.61,0,1.25.49,3.1-1.06,3.46a13.34,13.34,0,0,1-5.62-.15c-.51-.11-.92-1.84-.94-2.83-.08-4.32,0-8.64,0-13C392.84,90.54,392.83,86.47,392.83,81.73Z"/></g></g></svg>


